<svg width="100" height="88" viewBox="0 0 100 88" fill="none" xmlns="http://www.w3.org/2000/svg">
<path d="M51.0467 48.7333L69.6984 36.9533M70.6801 58.55V43.825H83.4417V58.55" stroke="#D71E2C" stroke-width="2.23729" stroke-linejoin="round"/>
<line x1="1.11867" y1="86.8814" x2="91.1581" y2="86.8814" stroke="#4A4A4A" stroke-width="2.23729" stroke-linecap="round" stroke-linejoin="round"/>
<path d="M8.83502 86.0367V64.44H21.5967V86.0367H29.45V56.5866H42.2117V86.0367H50.065V58.55H63.8084V86.0367H70.6801V58.55M83.4417 86.0367V58.55M15.7067 55.605L35.34 41.8616L53.01 48.7333" stroke="#4A4A4A" stroke-width="2.23729" stroke-linejoin="round"/>
<circle cx="81.2882" cy="18.6441" r="17.5254" stroke="#D71E2C" stroke-width="2.23729" stroke-linejoin="round"/>
<path d="M86.6611 23.1181C86.6611 24.4282 86.2373 25.4993 85.3896 26.3316C84.5573 27.1485 83.463 27.6417 82.1067 27.8112V29.8687H80.604V27.8343C79.3248 27.7572 78.2305 27.4105 77.3212 26.794C76.4118 26.1775 75.7568 25.3375 75.3561 24.274L77.6448 22.9563C78.1843 24.3126 79.1707 25.0678 80.604 25.2219V20.4132C79.9105 20.1512 79.3479 19.92 78.9164 19.7197C78.4848 19.5039 78.0224 19.2111 77.5292 18.8412C77.0514 18.4713 76.6893 18.0243 76.4427 17.5003C76.2115 16.9608 76.0959 16.3366 76.0959 15.6277C76.0959 14.333 76.5274 13.285 77.3905 12.4835C78.2536 11.6821 79.3248 11.2197 80.604 11.0964V9.06197H82.1067V11.1195C84.172 11.397 85.6053 12.4527 86.4068 14.2868L84.1643 15.5814C83.7636 14.5796 83.0777 13.9708 82.1067 13.7551V18.3325C82.5999 18.5175 82.9698 18.6639 83.2164 18.7718C83.4784 18.8797 83.8175 19.0415 84.2336 19.2573C84.6652 19.4731 84.9966 19.6888 85.2277 19.9046C85.4589 20.1204 85.6978 20.3824 85.9444 20.6906C86.2064 20.9989 86.3914 21.3611 86.4993 21.7772C86.6072 22.1779 86.6611 22.6249 86.6611 23.1181ZM78.7545 15.6277C78.7545 16.1054 78.8932 16.4985 79.1707 16.8067C79.4635 17.115 79.9413 17.4232 80.604 17.7315V13.7088C80.0338 13.8013 79.5791 14.0171 79.24 14.3561C78.9164 14.6952 78.7545 15.1191 78.7545 15.6277ZM82.1067 25.1988C82.7232 25.0755 83.1933 24.8289 83.517 24.459C83.8406 24.0891 84.0025 23.6498 84.0025 23.1412C84.0025 22.6326 83.8483 22.2242 83.5401 21.9159C83.2318 21.5923 82.754 21.284 82.1067 20.9912V25.1988Z" fill="#D71E2C"/>
</svg>
