<svg width="88" height="86" viewBox="0 0 88 86" fill="none" xmlns="http://www.w3.org/2000/svg">
<path fill-rule="evenodd" clip-rule="evenodd" d="M35.7496 10.4274C16.8607 11.9274 2 27.731 2 47.0055C2 67.2713 18.4287 83.7001 38.6946 83.7001C57.9691 83.7001 73.7727 68.8393 75.2727 49.9505H74.5245C73.0264 68.4269 57.557 82.9543 38.6946 82.9543C18.8406 82.9543 2.74576 66.8595 2.74576 47.0055C2.74576 28.1431 17.2731 12.6737 35.7496 11.1756V10.4274Z" fill="#4A4A4A"/>
<path d="M35.7496 10.4274H36.8682C36.8682 10.1153 36.7379 9.81741 36.5086 9.60565C36.2794 9.3939 35.9721 9.28753 35.661 9.31223L35.7496 10.4274ZM75.2727 49.9505L76.3878 50.039C76.4125 49.728 76.3061 49.4207 76.0944 49.1914C75.8826 48.9622 75.5847 48.8318 75.2727 48.8318V49.9505ZM74.5245 49.9505V48.8318C73.9417 48.8318 73.4566 49.2792 73.4095 49.8601L74.5245 49.9505ZM35.7496 11.1756L35.84 12.2906C36.4208 12.2435 36.8682 11.7583 36.8682 11.1756H35.7496ZM3.11864 47.0055C3.11864 28.3191 17.5263 12.9967 35.8381 11.5425L35.661 9.31223C16.1952 10.8581 0.881356 27.1428 0.881356 47.0055H3.11864ZM38.6946 82.5814C19.0465 82.5814 3.11864 66.6535 3.11864 47.0055H0.881356C0.881356 67.8891 17.8109 84.8187 38.6946 84.8187V82.5814ZM74.1575 49.8619C72.7034 68.1738 57.381 82.5814 38.6946 82.5814V84.8187C58.5572 84.8187 74.842 69.5048 76.3878 50.039L74.1575 49.8619ZM75.2727 48.8318H74.5245V51.0691H75.2727V48.8318ZM38.6946 84.0729C58.1445 84.0729 74.0946 69.0935 75.6395 50.0409L73.4095 49.8601C71.9581 67.7604 56.9695 81.8356 38.6946 81.8356V84.0729ZM1.62712 47.0055C1.62712 67.4773 18.2228 84.0729 38.6946 84.0729V81.8356C19.4584 81.8356 3.86441 66.2416 3.86441 47.0055H1.62712ZM35.6592 10.0606C16.6066 11.6054 1.62712 27.5556 1.62712 47.0055H3.86441C3.86441 28.7306 17.9396 13.742 35.84 12.2906L35.6592 10.0606ZM36.8682 11.1756V10.4274H34.6309V11.1756H36.8682Z" fill="#4A4A4A"/>
<path d="M35.7495 84.3088C24.624 74.1649 9.04819 45.4348 35.7495 11.6654" stroke="#4A4A4A" stroke-width="2.23729" stroke-linejoin="round"/>
<circle cx="65.1996" cy="22.5783" r="21.4597" stroke="#D71E2C" stroke-width="2.23729" stroke-linejoin="round"/>
<path d="M73.2979 27.2199C73.2979 28.9259 72.7459 30.3207 71.6421 31.4045C70.5584 32.4682 69.1334 33.1104 67.3673 33.3311V36.0104H65.4105V33.3613C63.7447 33.2609 62.3198 32.8093 61.1357 32.0066C59.9515 31.2038 59.0986 30.11 58.5768 28.7252L61.5571 27.0092C62.2596 28.7753 63.544 29.7588 65.4105 29.9594V23.6977C64.5074 23.3565 63.7748 23.0555 63.2129 22.7946C62.6509 22.5136 62.0488 22.1323 61.4066 21.6506C60.7844 21.1689 60.3128 20.5869 59.9917 19.9046C59.6906 19.2021 59.5401 18.3893 59.5401 17.4661C59.5401 15.7802 60.1021 14.4155 61.226 13.3719C62.3499 12.3283 63.7447 11.7262 65.4105 11.5656V8.91643H67.3673V11.5957C70.0566 11.957 71.9231 13.3318 72.9667 15.72L70.0466 17.4059C69.5248 16.1014 68.6317 15.3086 67.3673 15.0276V20.9883C68.0095 21.2292 68.4912 21.4198 68.8123 21.5603C69.1535 21.7008 69.595 21.9115 70.1369 22.1925C70.6988 22.4735 71.1303 22.7544 71.4314 23.0354C71.7324 23.3164 72.0435 23.6576 72.3646 24.059C72.7058 24.4604 72.9466 24.932 73.0871 25.4739C73.2276 25.9957 73.2979 26.5777 73.2979 27.2199ZM63.0021 17.4661C63.0021 18.0883 63.1828 18.6 63.544 19.0014C63.9253 19.4028 64.5475 19.8042 65.4105 20.2056V14.9674C64.6679 15.0878 64.0759 15.3688 63.6343 15.8104C63.2129 16.2519 63.0021 16.8038 63.0021 17.4661ZM67.3673 29.9293C68.1701 29.7688 68.7822 29.4477 69.2037 28.966C69.6251 28.4843 69.8358 27.9123 69.8358 27.25C69.8358 26.5877 69.6352 26.0559 69.2338 25.6545C68.8324 25.233 68.2102 24.8317 67.3673 24.4503V29.9293Z" fill="#D71E2C"/>
<path d="M36.7313 48.9688V83.3272" stroke="#4A4A4A" stroke-width="2.23729" stroke-linejoin="round"/>
<path d="M2.37286 48.9688H36.7312" stroke="#4A4A4A" stroke-width="2.23729" stroke-linejoin="round"/>
<path d="M52.4379 50.9321C53.0923 55.5132 51.0636 68.6021 37.7129 84.3088" stroke="#4A4A4A" stroke-width="2.23729" stroke-linejoin="round"/>
<path d="M63.2362 73.5103C55.0557 67.2931 33.5899 58.589 13.1712 73.5103M10.2262 25.4088C13.1712 28.0265 22.3989 33.4584 35.7495 34.2438" stroke="#4A4A4A" stroke-width="2.23729" stroke-linejoin="round"/>
<path d="M75.0163 49.9505H35.7496V10.6838" stroke="#D71E2C" stroke-width="2.23729" stroke-linecap="round" stroke-linejoin="round"/>
</svg>
