<svg width="93" height="74" viewBox="0 0 93 74" fill="none" xmlns="http://www.w3.org/2000/svg">
<path d="M16.725 72.68H2.00002V47.1567H21.6334V53.0467H29.4867V46.175H34.395" stroke="#4A4A4A" stroke-width="2.23729" stroke-linejoin="round"/>
<path d="M76.6067 52.065H91.3317V72.68H50.1017M21.6334 72.68H50.1017M50.1017 61.8817V72.68" stroke="#4A4A4A" stroke-width="2.23729" stroke-linejoin="round"/>
<path d="M50.1017 60.9V52.065H66.7901V57.955H72.6801V52.065H76.6067V34.395" stroke="#D71E2C" stroke-width="2.23729" stroke-linejoin="round"/>
<path d="M76.6067 29.4867V18.6884H59.9184V24.5784H53.0467V18.6884H35.3767V46.175H50.1017V59.9184" stroke="#D71E2C" stroke-width="2.23729" stroke-linejoin="round"/>
<path d="M46.175 9.85333V18.6883" stroke="#D71E2C" stroke-width="2.23729" stroke-linejoin="round"/>
<path d="M30.4684 29.4866H34.395" stroke="#D71E2C" stroke-width="2.23729" stroke-linejoin="round"/>
<path d="M8.87167 46.175V28.505H18.6883V11.8167" stroke="#4A4A4A" stroke-width="2.23729" stroke-linejoin="round"/>
<path d="M30.4684 29.4867H25.56V35.3767H18.6884V28.505" stroke="#4A4A4A" stroke-width="2.23729" stroke-linejoin="round"/>
<path d="M18.6884 8.87167V2H29.4867V8.87167H35.3767V2H46.175V10.835" stroke="#4A4A4A" stroke-width="2.23729" stroke-linejoin="round"/>
</svg>
