<svg width="22" height="17" viewBox="0 0 22 17" fill="none" xmlns="http://www.w3.org/2000/svg">
<path d="M3.47368 0H18.5263C19.4476 0 20.3311 0.358213 20.9826 0.995837C21.634 1.63346 22 2.49826 22 3.4V13.6C22 14.5017 21.634 15.3665 20.9826 16.0042C20.3311 16.6418 19.4476 17 18.5263 17H3.47368C2.55241 17 1.66886 16.6418 1.01742 16.0042C0.365977 15.3665 0 14.5017 0 13.6V3.4C0 2.49826 0.365977 1.63346 1.01742 0.995837C1.66886 0.358213 2.55241 0 3.47368 0ZM3.47368 1.13333C2.90863 1.13333 2.38989 1.33167 1.98811 1.66147L11 7.38933L20.0119 1.66147C19.5957 1.31967 19.0696 1.13264 18.5263 1.13333H3.47368ZM11 8.74027L1.31305 2.584C1.21033 2.8443 1.15773 3.12096 1.15789 3.4V13.6C1.15789 14.2012 1.40188 14.7777 1.83617 15.2028C2.27047 15.6279 2.8595 15.8667 3.47368 15.8667H18.5263C19.1405 15.8667 19.7295 15.6279 20.1638 15.2028C20.5981 14.7777 20.8421 14.2012 20.8421 13.6V3.4C20.8421 3.11213 20.7877 2.83673 20.6869 2.584L11 8.73913V8.74027Z" fill="#E8E8E8"/>
</svg>
